<svg width="15" height="15" viewBox="0 0 15 15" fill="none" xmlns="http://www.w3.org/2000/svg">
    <path
        d="M5.45927 11.6927H5.16298C2.79261 11.6927 1.60742 11.1001 1.60742 8.13717V5.17421C1.60742 2.80384 2.79261 1.61865 5.16298 1.61865H9.90372C12.2741 1.61865 13.4593 2.80384 13.4593 5.17421V8.13717C13.4593 10.5075 12.2741 11.6927 9.90372 11.6927H9.60742C9.42372 11.6927 9.24594 11.7816 9.13335 11.9298L8.24446 13.1149C7.85335 13.6364 7.21335 13.6364 6.82224 13.1149L5.93335 11.9298C5.83853 11.7994 5.61927 11.6927 5.45927 11.6927Z"
        stroke="white" stroke-width="1.06667" stroke-miterlimit="10" stroke-linecap="round"
        stroke-linejoin="round" />
    <path d="M4.57031 5.17432H10.4962" stroke="white" stroke-width="1.06667" stroke-linecap="round"
        stroke-linejoin="round" />
    <path d="M4.57031 8.13721H8.12587" stroke="white" stroke-width="1.06667" stroke-linecap="round"
        stroke-linejoin="round" />
</svg>
