<svg xmlns="http://www.w3.org/2000/svg" width="42" height="43" viewBox="0 0 42 43">
    <defs>
        <clipPath id="clip-path">
            <rect id="Rectangle_24157" width="22" height="22" transform="translate(362 719)"
                fill="#fff" />
        </clipPath>
    </defs>
    <g id="Group_44879" transform="translate(-352 -708)">
        <g id="Group_44843" transform="translate(352 708)">
            <ellipse id="Oval" cx="21" cy="21.5" rx="21" ry="21.5" fill="#f90e36" />
        </g>
        <g id="Mask_Group_235" clip-path="url(#clip-path)">
            <g id="svgexport-20" transform="translate(362 719)">
                <path id="Path_43361"
                    d="M7.339.611A.611.611,0,0,1,7.949,0h6.1a.612.612,0,0,1,.61.611V2.12H7.339ZM17.371,21.127a.935.935,0,0,1-.939.874H5.5a.944.944,0,0,1-.939-.877L3.623,7.436H18.37l-1,13.69ZM19.8,6.2H2.2V4.779A1.42,1.42,0,0,1,3.617,3.36H18.383A1.42,1.42,0,0,1,19.8,4.779V6.2ZM8.166,18.738a.62.62,0,1,0,1.239,0v-8.69a.62.62,0,1,0-1.239,0v8.691Zm4.422,0a.62.62,0,1,0,1.24,0v-8.69a.62.62,0,1,0-1.239,0Z"
                    fill="#fff" fill-rule="evenodd" />
            </g>
        </g>
    </g>
</svg>
