<svg width="366" height="278" viewBox="0 0 181 138" fill="none" xmlns="http://www.w3.org/2000/svg">
    <g id="Group 17">
        <g id="Union">
            <mask id="path-1-inside-1_1200_2040" fill="white">
                <path
                    d="M181 129.849V22.3741C181 18.3508 178.23 15.0893 174.812 15.0893H71.9234C69.0601 15.0893 66.4151 13.559 64.9879 11.0767L60.8029 3.79749C59.6559 1.76574 57.7213 0.544678 55.6491 0.544678H6.18803C2.77048 0.544678 0 3.80618 0 7.82945V30.3449V31.0559V129.849C0 133.873 2.77048 137.134 6.18803 137.134H174.812C178.23 137.134 181 133.873 181 129.849Z" />
            </mask>
            <path
                d="M181 129.849V22.3741C181 18.3508 178.23 15.0893 174.812 15.0893H71.9234C69.0601 15.0893 66.4151 13.559 64.9879 11.0767L60.8029 3.79749C59.6559 1.76574 57.7213 0.544678 55.6491 0.544678H6.18803C2.77048 0.544678 0 3.80618 0 7.82945V30.3449V31.0559V129.849C0 133.873 2.77048 137.134 6.18803 137.134H174.812C178.23 137.134 181 133.873 181 129.849Z" />
            <path
                d="M60.8029 3.79749L59.932 4.28909L59.9359 4.29592L60.8029 3.79749ZM64.9879 11.0767L64.121 11.5751V11.5751L64.9879 11.0767ZM180 22.3741V129.849H182V22.3741H180ZM174.812 136.134H6.18803V138.134H174.812V136.134ZM174.812 14.0893H71.9234V16.0893H174.812V14.0893ZM6.18803 136.134C3.46954 136.134 1 133.479 1 129.849H-1C-1 134.266 2.07142 138.134 6.18803 138.134V136.134ZM180 129.849C180 133.479 177.53 136.134 174.812 136.134V138.134C178.929 138.134 182 134.266 182 129.849H180ZM182 22.3741C182 17.9577 178.929 14.0893 174.812 14.0893V16.0893C177.53 16.0893 180 18.7439 180 22.3741H182ZM6.18803 1.54468H55.6491V-0.455322H6.18803V1.54468ZM1 31.0559V30.3449H-1V31.0559H1ZM1 30.3449V7.82945H-1V30.3449H1ZM59.9359 4.29592L64.121 11.5751L65.8548 10.5783L61.6698 3.29907L59.9359 4.29592ZM55.6491 1.54468C57.3088 1.54468 58.9354 2.52362 59.932 4.28907L61.6737 3.30591C60.3765 1.00786 58.1338 -0.455322 55.6491 -0.455322V1.54468ZM6.18803 -0.455322C2.07142 -0.455322 -1 3.4131 -1 7.82945H1C1 4.19926 3.46954 1.54468 6.18803 1.54468V-0.455322ZM1 129.849V31.0559H-1V129.849H1ZM71.9234 14.0893C69.418 14.0893 67.1036 12.7503 65.8548 10.5783L64.121 11.5751C65.7265 14.3677 68.7021 16.0893 71.9234 16.0893V14.0893Z"
                fill="#E0E0E0" mask="url(#path-1-inside-1_1200_2040)" />
        </g>
    </g>
</svg>
