<svg width="515" height="87" viewBox="0 0 515 87" fill="none" xmlns="http://www.w3.org/2000/svg">
    <path
        d="M481.98 1.62003C481.93 1.50003 481.89 1.38002 481.84 1.27002C481.88 1.38002 481.93 1.50003 481.98 1.62003Z"
        fill="#F58221" />
    <path
        d="M319.57 6.47971H312.98V41.9497C312.98 43.8597 311.78 44.9997 309.77 44.9997C308.28 44.9997 306.77 44.2397 305.27 42.7397L305.19 42.6597L285.86 13.6597C282.71 8.81973 278.61 6.46973 273.32 6.46973C261.12 6.46973 255.18 11.7697 255.18 22.6797V58.1497H261.24C265.16 58.1497 268.34 54.9697 268.34 51.0497V22.6797C268.34 20.7697 269.54 19.6297 271.55 19.6297C273.06 19.6297 274.58 20.3897 276.05 21.8997L276.12 21.9797L295.45 50.9797C298.59 55.8197 302.7 58.1697 307.99 58.1697C320.19 58.1697 326.13 52.8697 326.13 41.9597V13.0597C326.13 9.42972 323.19 6.48972 319.56 6.48972L319.57 6.47971Z"
        fill="#8331A7" />
    <path
        d="M59.14 6.47998C52.05 6.47998 47.44 11.28 45.03 21.19L38.71 42.23L32.38 21.15C29.98 11.28 25.37 6.48999 18.28 6.48999C6.30998 6.48999 0.48999 12.47 0.48999 24.78V58.34H13.79V22.87C13.79 21.15 14.75 20.16 16.43 20.16C18.11 20.16 19.5 22.63 20.89 28.35L28.34 51.32C29.49 56.05 32.28 58.35 36.87 58.35H40.59C45.18 58.35 47.97 56.05 49.14 51.26L56.55 28.41C57.96 22.63 59.29 20.16 61.02 20.16C62.75 20.16 63.66 21.15 63.66 22.87V58.34H76.96V24.78C76.96 12.47 71.14 6.48999 59.17 6.48999L59.14 6.47998Z"
        fill="#8331A7" />
    <path
        d="M181.29 15.9299H200.27V58.2199H204.92C209.65 58.2199 213.48 54.3899 213.48 49.6499V15.9299H232.46V6.43994H181.28V15.9299H181.29Z"
        fill="#8331A7" />
    <path
        d="M237.16 58.2199H250.03C250.22 58.2199 250.38 58.0599 250.38 57.8699V6.43994H237.17V58.2199H237.16Z"
        fill="#8331A7" />
    <path
        d="M386.64 27.5799H363.86V37.0699H382.92V48.7199H351.98C348.05 48.7199 344.83 45.4999 344.83 41.5699V23.0799C344.83 19.1499 348.05 15.9299 351.98 15.9299H396.13C396.13 10.6899 391.88 6.43994 386.64 6.43994H348.43C339.18 6.43994 331.62 14.0099 331.62 23.2499V41.3999C331.62 50.6499 339.19 58.2099 348.43 58.2099H386.64C391.88 58.2099 396.13 53.9599 396.13 48.7199V37.0699C396.13 31.8299 391.88 27.5799 386.64 27.5799Z"
        fill="#8331A7" />
    <path
        d="M82.3 23.2499V41.3999C82.3 50.6499 89.87 58.2099 99.11 58.2099H126.57V48.7199H102.66C98.73 48.7199 95.51 45.4999 95.51 41.5699V37.0699H126.57V27.5799H95.51V23.0799C95.51 19.1499 98.73 15.9299 102.66 15.9299H126.57V6.43994H99.11C89.86 6.43994 82.3 14.0099 82.3 23.2499Z"
        fill="#8331A7" />
    <path
        d="M132.16 23.2499V41.3999C132.16 50.6499 139.73 58.2099 148.97 58.2099H176.43V48.7199H152.52C148.59 48.7199 145.37 45.4999 145.37 41.5699V37.0699H176.43V27.5799H145.37V23.0799C145.37 19.1499 148.59 15.9299 152.52 15.9299H176.43V6.43994H148.97C139.72 6.43994 132.16 14.0099 132.16 23.2499Z"
        fill="#8331A7" />
    <path
        d="M487.48 14.5898C489.711 14.5898 491.52 12.781 491.52 10.5498C491.52 8.31854 489.711 6.50977 487.48 6.50977C485.249 6.50977 483.44 8.31854 483.44 10.5498C483.44 12.781 485.249 14.5898 487.48 14.5898Z"
        fill="#1B1D0F" />
    <path
        d="M501.92 15.4999C504.151 15.4999 505.96 13.6912 505.96 11.4599C505.96 9.2287 504.151 7.41992 501.92 7.41992C499.689 7.41992 497.88 9.2287 497.88 11.4599C497.88 13.6912 499.689 15.4999 501.92 15.4999Z"
        fill="#1B1D0F" />
    <path
        d="M501.89 29.83C504.121 29.83 505.93 28.0212 505.93 25.79C505.93 23.5587 504.121 21.75 501.89 21.75C499.659 21.75 497.85 23.5587 497.85 25.79C497.85 28.0212 499.659 29.83 501.89 29.83Z"
        fill="#1B1D0F" />
    <path
        d="M497.66 29.6898C496.15 28.0698 493.6 27.9698 491.98 29.4798L474.23 45.9698L480.08 51.5698L497.48 35.4098C499.1 33.8998 499.2 31.3498 497.69 29.7298L497.66 29.6998V29.6898Z"
        fill="#1B1D0F" />
    <path
        d="M497.69 15.37C496.18 13.75 493.63 13.65 492.01 15.16L466.67 38.74L472.52 44.34L497.51 21.08C499.13 19.57 499.23 17.02 497.72 15.4L497.69 15.37Z"
        fill="#1B1D0F" />
    <path
        d="M483.25 14.4501C481.74 12.8301 479.19 12.7301 477.57 14.2401L459.05 31.4401L464.9 37.0401L483.07 20.1701C484.69 18.6601 484.79 16.1101 483.28 14.4901L483.25 14.4601V14.4501Z"
        fill="#1B1D0F" />
    <path
        d="M439.8 80.7799C438.38 79.9499 436.58 80.1399 435.37 81.2599L434.34 82.1899C435.76 83.0199 437.56 82.8299 438.77 81.7099L439.8 80.7799Z"
        fill="#8331A7" />
    <path
        d="M448.54 72.63C447.12 71.8 445.32 71.99 444.11 73.11L438.85 77.97C440.27 78.8 442.07 78.61 443.28 77.49L448.54 72.63Z"
        fill="#8331A7" />
    <path
        d="M458.59 63.2999C457.17 62.4699 455.37 62.6599 454.16 63.7799L447.35 70.1199C448.77 70.9499 450.57 70.7599 451.78 69.6399L458.59 63.2999Z"
        fill="#8331A7" />
    <path
        d="M421.77 79.4801C420.35 78.6501 418.55 78.8401 417.34 79.9601L414.91 82.2001C416.33 83.0301 418.13 82.8401 419.34 81.7201L421.77 79.4801Z"
        fill="#8331A7" />
    <path
        d="M448.93 54.2799C447.51 53.4499 445.71 53.6399 444.5 54.7599L440.07 58.9999C441.49 59.8299 443.29 59.6399 444.5 58.5199L448.93 54.2799Z"
        fill="#8331A7" />
    <path
        d="M440.44 62.3302C439.02 61.5002 437.22 61.6902 436.01 62.8102L434.33 64.3702C435.75 65.2002 437.55 65.0102 438.76 63.8902L440.44 62.3302Z"
        fill="#8331A7" />
    <path
        d="M425.97 66.69C424.55 65.86 422.75 66.05 421.54 67.17L419.86 68.73C421.28 69.56 423.08 69.37 424.29 68.25L425.97 66.69Z"
        fill="#8331A7" />
    <path
        d="M419.69 72.4898C418.27 71.6598 416.47 71.8498 415.26 72.9698L405.24 82.1898C406.66 83.0198 408.46 82.8298 409.67 81.7098L419.69 72.4898Z"
        fill="#8331A7" />
    <path
        d="M434.47 67.7501C433.05 66.9201 431.25 67.1101 430.04 68.2301L421.73 75.9101C423.15 76.7401 424.95 76.5501 426.16 75.4301L434.47 67.7501Z"
        fill="#8331A7" />
    <path
        d="M443.47 82.19C444.89 83.02 446.69 82.83 447.9 81.71L449.58 80.15C448.16 79.32 446.36 79.51 445.15 80.63L443.47 82.19Z"
        fill="#8331A7" />
    <path
        d="M449.95 76.2001C451.37 77.0301 453.17 76.8401 454.38 75.7201L463.23 67.5401C461.81 66.7101 460.01 66.9001 458.8 68.0201L449.95 76.2001Z"
        fill="#8331A7" />
    <path
        d="M444.11 49.9C442.69 49.07 440.89 49.26 439.68 50.38L425.92 63.12C427.34 63.95 429.14 63.76 430.35 62.64L444.11 49.9Z"
        fill="#8331A7" />
    <path
        d="M443.22 68.6998C441.8 67.8698 440 68.0598 438.79 69.1798L424.71 82.1998C426.13 83.0298 427.93 82.8398 429.14 81.7198L443.22 68.6998Z"
        fill="#8331A7" />
    <path
        d="M453.77 58.7901C452.35 57.9601 450.55 58.1501 449.34 59.2701L443.33 64.9701C444.75 65.8001 446.55 65.6101 447.76 64.4901L453.77 58.7901Z"
        fill="#8331A7" />
    <path
        d="M426.12 9.30997C423.99 7.46997 421.26 6.45996 418.44 6.45996H405.29L485.06 79.85C487.19 81.69 489.92 82.7 492.74 82.7H505.89L426.12 9.30997Z"
        fill="#8331A7" />
    <mask id="mask0_2605_82993" style="mask-type:luminance" maskUnits="userSpaceOnUse" x="458" y="0"
        width="57" height="56">
        <path d="M458.62 31.43L483.43 55.18L514.36 24.38V0H491.01L458.62 31.43Z" fill="white" />
    </mask>
    <g mask="url(#mask0_2605_82993)">
        <path
            d="M483.117 20.3945C484.837 18.7973 484.938 16.1099 483.343 14.3919C481.747 12.6739 479.06 12.576 477.34 14.1732L446.299 42.9977C444.579 44.5949 444.478 47.2824 446.074 49.0004C447.669 50.7183 450.356 50.8162 452.076 49.219L483.117 20.3945Z"
            fill="url(#paint0_linear_2605_82993)" />
        <path
            d="M497.468 35.7212C499.188 34.124 499.289 31.4365 497.694 29.7186C496.099 28.0006 493.411 27.9027 491.691 29.4999L460.65 58.3244C458.93 59.9216 458.829 62.609 460.425 64.327C462.02 66.045 464.708 66.1429 466.428 64.5457L497.468 35.7212Z"
            fill="url(#paint1_linear_2605_82993)" />
        <path
            d="M497.554 21.4307C499.274 19.8335 499.375 17.146 497.78 15.428C496.184 13.7101 493.497 13.6122 491.777 15.2094L466.122 39.0324C464.402 40.6296 464.301 43.3171 465.896 45.0351C467.492 46.753 470.179 46.8509 471.899 45.2537L497.554 21.4307Z"
            fill="url(#paint2_linear_2605_82993)" />
        <path
            d="M487.46 14.8198C489.807 14.8198 491.71 12.917 491.71 10.5698C491.71 8.22261 489.807 6.31982 487.46 6.31982C485.113 6.31982 483.21 8.22261 483.21 10.5698C483.21 12.917 485.113 14.8198 487.46 14.8198Z"
            fill="url(#paint3_linear_2605_82993)" />
        <path
            d="M501.9 15.52C504.247 15.52 506.15 13.6172 506.15 11.27C506.15 8.92281 504.247 7.02002 501.9 7.02002C499.553 7.02002 497.65 8.92281 497.65 11.27C497.65 13.6172 499.553 15.52 501.9 15.52Z"
            fill="url(#paint4_linear_2605_82993)" />
        <path
            d="M501.9 29.9199C504.247 29.9199 506.15 28.0171 506.15 25.6699C506.15 23.3227 504.247 21.4199 501.9 21.4199C499.553 21.4199 497.65 23.3227 497.65 25.6699C497.65 28.0171 499.553 29.9199 501.9 29.9199Z"
            fill="url(#paint5_linear_2605_82993)" />
    </g>
    <path
        d="M0.714844 81.5488C1.41016 82.1152 2.22852 82.3984 3.16992 82.3984C4.37305 82.3984 4.97461 81.9863 4.97461 81.1621C4.97461 80.9238 4.9082 80.709 4.77539 80.5176C4.64258 80.3262 4.46289 80.1602 4.23633 80.0195C4.01367 79.875 3.57031 79.6445 2.90625 79.3281C2.08984 78.9375 1.51953 78.541 1.19531 78.1387C0.871094 77.7363 0.708984 77.2637 0.708984 76.7207C0.708984 75.9395 1.01758 75.3242 1.63477 74.875C2.25195 74.4258 3.04102 74.2012 4.00195 74.2012C4.91211 74.2012 5.59961 74.3125 6.06445 74.5352V75.9766C5.50586 75.5898 4.80859 75.3965 3.97266 75.3965C3.4375 75.3965 3.00586 75.5039 2.67773 75.7188C2.34961 75.9336 2.18555 76.2285 2.18555 76.6035C2.18555 76.9434 2.30469 77.2227 2.54297 77.4414C2.78516 77.6602 3.29297 77.9531 4.06641 78.3203C4.96875 78.7422 5.5918 79.166 5.93555 79.5918C6.2793 80.0137 6.45117 80.5 6.45117 81.0508C6.45117 81.8711 6.1543 82.498 5.56055 82.9316C4.9668 83.3652 4.14453 83.582 3.09375 83.582C2.70703 83.582 2.27734 83.5352 1.80469 83.4414C1.33203 83.3477 0.96875 83.2227 0.714844 83.0664V81.5488ZM17.978 80.5586H13.5248C13.5834 81.8672 14.2495 82.5215 15.5229 82.5215C16.2416 82.5215 16.8959 82.3066 17.4858 81.877V83.0137C16.9077 83.3926 16.1479 83.582 15.2065 83.582C14.2455 83.582 13.4936 83.2891 12.9506 82.7031C12.4077 82.1172 12.1362 81.2969 12.1362 80.2422C12.1362 79.2422 12.4272 78.418 13.0092 77.7695C13.5952 77.1211 14.3276 76.7969 15.2065 76.7969C16.0815 76.7969 16.7612 77.0742 17.2455 77.6289C17.7338 78.1797 17.978 78.9395 17.978 79.9082V80.5586ZM16.642 79.5566C16.6381 79.002 16.5112 78.5762 16.2612 78.2793C16.0112 77.9824 15.6557 77.834 15.1948 77.834C14.7768 77.834 14.4135 77.9922 14.1049 78.3086C13.7963 78.6211 13.6049 79.0371 13.5307 79.5566H16.642ZM24.1376 77.3828C24.7977 76.9922 25.5614 76.7969 26.4286 76.7969C28.0653 76.7969 28.8837 77.6426 28.8837 79.334V83.4297H27.5477V82.4453H27.5184C27.077 83.2031 26.4208 83.582 25.5497 83.582C24.913 83.582 24.411 83.4102 24.0438 83.0664C23.6805 82.7227 23.4989 82.2598 23.4989 81.6777C23.4989 80.459 24.2235 79.748 25.6727 79.5449L27.5536 79.2871C27.5536 78.3223 27.1298 77.8398 26.2821 77.8398C25.5048 77.8398 24.7899 78.0918 24.1376 78.5957V77.3828ZM26.1239 80.418C25.6552 80.4805 25.3231 80.5996 25.1278 80.7754C24.9364 80.9512 24.8407 81.209 24.8407 81.5488C24.8407 81.834 24.9442 82.0684 25.1512 82.252C25.3583 82.4316 25.6239 82.5215 25.9481 82.5215C26.4091 82.5215 26.7919 82.3594 27.0966 82.0352C27.4012 81.707 27.5536 81.2949 27.5536 80.7988V80.2246L26.1239 80.418ZM44.8519 83.4297H43.4749V79.7148C43.4749 79.0742 43.3714 78.6113 43.1644 78.3262C42.9573 78.041 42.6273 77.8984 42.1741 77.8984C41.7835 77.8984 41.4476 78.0781 41.1663 78.4375C40.8851 78.7969 40.7445 79.2363 40.7445 79.7559V83.4297H39.3734V79.6211C39.3734 78.4727 38.9339 77.8984 38.055 77.8984C37.6488 77.8984 37.3109 78.0723 37.0413 78.4199C36.7757 78.7676 36.6429 79.2168 36.6429 79.7676V83.4297H35.2659V76.9492H36.6429V77.9688H36.6722C37.137 77.1875 37.8167 76.7969 38.7113 76.7969C39.6214 76.7969 40.2366 77.2285 40.557 78.0918C41.0413 77.2285 41.764 76.7969 42.7249 76.7969C44.1429 76.7969 44.8519 77.6738 44.8519 79.4277V83.4297ZM51.2283 83.4297V73.8379H52.6052V83.4297H51.2283ZM64.5305 80.5586H60.0773C60.1359 81.8672 60.802 82.5215 62.0754 82.5215C62.7941 82.5215 63.4484 82.3066 64.0383 81.877V83.0137C63.4602 83.3926 62.7004 83.582 61.759 83.582C60.798 83.582 60.0461 83.2891 59.5031 82.7031C58.9602 82.1172 58.6887 81.2969 58.6887 80.2422C58.6887 79.2422 58.9797 78.418 59.5617 77.7695C60.1477 77.1211 60.8801 76.7969 61.759 76.7969C62.634 76.7969 63.3137 77.0742 63.798 77.6289C64.2863 78.1797 64.5305 78.9395 64.5305 79.9082V80.5586ZM63.1945 79.5566C63.1906 79.002 63.0637 78.5762 62.8137 78.2793C62.5637 77.9824 62.2082 77.834 61.7473 77.834C61.3293 77.834 60.966 77.9922 60.6574 78.3086C60.3488 78.6211 60.1574 79.0371 60.0832 79.5566H63.1945ZM70.2272 81.9238C70.8327 82.334 71.4616 82.5391 72.1139 82.5391C72.9733 82.5391 73.403 82.2734 73.403 81.7422C73.403 81.5195 73.3131 81.3379 73.1334 81.1973C72.9538 81.0527 72.5495 80.8633 71.9205 80.6289C71.2604 80.375 70.8151 80.1055 70.5846 79.8203C70.3541 79.5312 70.2389 79.1699 70.2389 78.7363C70.2389 78.1387 70.4889 77.666 70.9889 77.3184C71.4889 76.9707 72.108 76.7969 72.8463 76.7969C73.4127 76.7969 73.942 76.8906 74.4342 77.0781V78.2969C73.942 77.9922 73.3913 77.8398 72.7819 77.8398C72.4342 77.8398 72.153 77.9121 71.9381 78.0566C71.7233 78.2012 71.6159 78.3906 71.6159 78.625C71.6159 78.8555 71.694 79.0371 71.8502 79.1699C72.0104 79.3027 72.3756 79.4785 72.9459 79.6973C73.6491 79.9551 74.1276 80.2305 74.3815 80.5234C74.6393 80.8125 74.7682 81.1738 74.7682 81.6074C74.7682 82.2207 74.5182 82.7031 74.0182 83.0547C73.5182 83.4062 72.862 83.582 72.0495 83.582C71.3541 83.582 70.7467 83.4609 70.2272 83.2188V81.9238ZM80.4591 81.9238C81.0645 82.334 81.6934 82.5391 82.3458 82.5391C83.2052 82.5391 83.6348 82.2734 83.6348 81.7422C83.6348 81.5195 83.545 81.3379 83.3653 81.1973C83.1856 81.0527 82.7813 80.8633 82.1524 80.6289C81.4923 80.375 81.047 80.1055 80.8165 79.8203C80.586 79.5312 80.4708 79.1699 80.4708 78.7363C80.4708 78.1387 80.7208 77.666 81.2208 77.3184C81.7208 76.9707 82.3399 76.7969 83.0782 76.7969C83.6446 76.7969 84.1739 76.8906 84.6661 77.0781V78.2969C84.1739 77.9922 83.6231 77.8398 83.0137 77.8398C82.6661 77.8398 82.3848 77.9121 82.17 78.0566C81.9552 78.2012 81.8477 78.3906 81.8477 78.625C81.8477 78.8555 81.9259 79.0371 82.0821 79.1699C82.2423 79.3027 82.6075 79.4785 83.1778 79.6973C83.8809 79.9551 84.3595 80.2305 84.6134 80.5234C84.8712 80.8125 85.0001 81.1738 85.0001 81.6074C85.0001 82.2207 84.7501 82.7031 84.2501 83.0547C83.7501 83.4062 83.0938 83.582 82.2813 83.582C81.586 83.582 80.9786 83.4609 80.4591 83.2188V81.9238ZM106.958 83.4297V77.5703C106.958 77.0586 106.985 76.4512 107.04 75.748H107.005C106.888 76.252 106.796 76.582 106.729 76.7383L103.97 83.4297H103.05L100.278 76.791C100.208 76.623 100.116 76.2754 100.003 75.748H99.9677C100.007 76.2949 100.026 76.9551 100.026 77.7285V83.4297H98.7197V74.3535H100.683L103.138 80.3477C103.329 80.8164 103.456 81.2051 103.519 81.5137H103.56C103.634 81.2676 103.77 80.873 103.97 80.3301L106.466 74.3535H108.353V83.4297H106.958ZM120.448 80.5586H115.995C116.053 81.8672 116.719 82.5215 117.993 82.5215C118.711 82.5215 119.366 82.3066 119.955 81.877V83.0137C119.377 83.3926 118.618 83.582 117.676 83.582C116.715 83.582 115.963 83.2891 115.42 82.7031C114.877 82.1172 114.606 81.2969 114.606 80.2422C114.606 79.2422 114.897 78.418 115.479 77.7695C116.065 77.1211 116.797 76.7969 117.676 76.7969C118.551 76.7969 119.231 77.0742 119.715 77.6289C120.204 78.1797 120.448 78.9395 120.448 79.9082V80.5586ZM119.112 79.5566C119.108 79.002 118.981 78.5762 118.731 78.2793C118.481 77.9824 118.125 77.834 117.664 77.834C117.246 77.834 116.883 77.9922 116.575 78.3086C116.266 78.6211 116.075 79.0371 116 79.5566H119.112ZM131.875 80.5586H127.422C127.48 81.8672 128.146 82.5215 129.42 82.5215C130.139 82.5215 130.793 82.3066 131.383 81.877V83.0137C130.805 83.3926 130.045 83.582 129.103 83.582C128.142 83.582 127.39 83.2891 126.847 82.7031C126.305 82.1172 126.033 81.2969 126.033 80.2422C126.033 79.2422 126.324 78.418 126.906 77.7695C127.492 77.1211 128.224 76.7969 129.103 76.7969C129.978 76.7969 130.658 77.0742 131.142 77.6289C131.631 78.1797 131.875 78.9395 131.875 79.9082V80.5586ZM130.539 79.5566C130.535 79.002 130.408 78.5762 130.158 78.2793C129.908 77.9824 129.553 77.834 129.092 77.834C128.674 77.834 128.31 77.9922 128.002 78.3086C127.693 78.6211 127.502 79.0371 127.428 79.5566H130.539ZM141.204 83.3594C140.95 83.5039 140.585 83.5762 140.109 83.5762C138.878 83.5762 138.263 82.9082 138.263 81.5723V78.0391H137.167V76.9492H138.263V75.4316L139.634 75.0156V76.9492H141.204V78.0391H139.634V81.332C139.634 81.7344 139.704 82.0254 139.845 82.2051C139.99 82.3848 140.22 82.4746 140.536 82.4746C140.783 82.4746 141.005 82.4043 141.204 82.2637V83.3594ZM146.919 74.7227C146.919 74.4922 146.997 74.3027 147.153 74.1543C147.313 74.002 147.514 73.9258 147.757 73.9258C147.995 73.9258 148.196 74.002 148.36 74.1543C148.524 74.3027 148.606 74.4922 148.606 74.7227C148.606 74.9531 148.524 75.1445 148.36 75.2969C148.196 75.4453 147.995 75.5195 147.757 75.5195C147.518 75.5195 147.319 75.4434 147.159 75.291C146.999 75.1387 146.919 74.9492 146.919 74.7227ZM147.053 83.4297V76.9492H148.43V83.4297H147.053ZM160.619 83.4297H159.248V79.7676C159.248 78.5215 158.795 77.8984 157.889 77.8984C157.432 77.8984 157.053 78.0723 156.752 78.4199C156.455 78.7637 156.307 79.2012 156.307 79.7324V83.4297H154.93V76.9492H156.307V78.0098H156.336C156.817 77.2012 157.52 76.7969 158.445 76.7969C159.895 76.7969 160.619 77.6875 160.619 79.4688V83.4297ZM172.826 82.832C172.826 85.2617 171.611 86.4766 169.181 86.4766C168.357 86.4766 167.658 86.3359 167.084 86.0547V84.7891C167.795 85.1875 168.484 85.3867 169.152 85.3867C170.683 85.3867 171.449 84.6035 171.449 83.0371V82.3926H171.425C170.949 83.1855 170.232 83.582 169.275 83.582C168.462 83.582 167.81 83.293 167.318 82.7148C166.83 82.1328 166.586 81.3574 166.586 80.3887C166.586 79.2949 166.853 78.4238 167.388 77.7754C167.927 77.123 168.644 76.7969 169.539 76.7969C170.386 76.7969 171.015 77.1309 171.425 77.7988H171.449V76.9492H172.826V82.832ZM171.461 79.6328C171.461 79.1523 171.302 78.7441 170.986 78.4082C170.67 78.0684 170.279 77.8984 169.814 77.8984C169.248 77.8984 168.8 78.1133 168.472 78.543C168.148 78.9688 167.986 79.5605 167.986 80.3184C167.986 80.9746 168.142 81.5 168.455 81.8945C168.767 82.2852 169.179 82.4805 169.691 82.4805C170.211 82.4805 170.634 82.2871 170.962 81.9004C171.295 81.5137 171.461 81.0254 171.461 80.4355V79.6328ZM179.026 81.9238C179.632 82.334 180.261 82.5391 180.913 82.5391C181.772 82.5391 182.202 82.2734 182.202 81.7422C182.202 81.5195 182.112 81.3379 181.933 81.1973C181.753 81.0527 181.349 80.8633 180.72 80.6289C180.06 80.375 179.614 80.1055 179.384 79.8203C179.153 79.5312 179.038 79.1699 179.038 78.7363C179.038 78.1387 179.288 77.666 179.788 77.3184C180.288 76.9707 180.907 76.7969 181.646 76.7969C182.212 76.7969 182.741 76.8906 183.233 77.0781V78.2969C182.741 77.9922 182.19 77.8398 181.581 77.8398C181.233 77.8398 180.952 77.9121 180.737 78.0566C180.522 78.2012 180.415 78.3906 180.415 78.625C180.415 78.8555 180.493 79.0371 180.649 79.1699C180.81 79.3027 181.175 79.4785 181.745 79.6973C182.448 79.9551 182.927 80.2305 183.181 80.5234C183.439 80.8125 183.567 81.1738 183.567 81.6074C183.567 82.2207 183.317 82.7031 182.817 83.0547C182.317 83.4062 181.661 83.582 180.849 83.582C180.153 83.582 179.546 83.4609 179.026 83.2188V81.9238ZM190.852 81.9355L189.868 85.0762H188.836L189.545 81.9355H190.852ZM204.484 81.5488C205.179 82.1152 205.997 82.3984 206.939 82.3984C208.142 82.3984 208.744 81.9863 208.744 81.1621C208.744 80.9238 208.677 80.709 208.544 80.5176C208.411 80.3262 208.232 80.1602 208.005 80.0195C207.783 79.875 207.339 79.6445 206.675 79.3281C205.859 78.9375 205.288 78.541 204.964 78.1387C204.64 77.7363 204.478 77.2637 204.478 76.7207C204.478 75.9395 204.786 75.3242 205.404 74.875C206.021 74.4258 206.81 74.2012 207.771 74.2012C208.681 74.2012 209.369 74.3125 209.833 74.5352V75.9766C209.275 75.5898 208.577 75.3965 207.742 75.3965C207.206 75.3965 206.775 75.5039 206.447 75.7188C206.119 75.9336 205.954 76.2285 205.954 76.6035C205.954 76.9434 206.074 77.2227 206.312 77.4414C206.554 77.6602 207.062 77.9531 207.835 78.3203C208.738 78.7422 209.361 79.166 209.704 79.5918C210.048 80.0137 210.22 80.5 210.22 81.0508C210.22 81.8711 209.923 82.498 209.329 82.9316C208.736 83.3652 207.913 83.582 206.863 83.582C206.476 83.582 206.046 83.5352 205.574 83.4414C205.101 83.3477 204.738 83.2227 204.484 83.0664V81.5488ZM219.649 83.3594C219.395 83.5039 219.03 83.5762 218.554 83.5762C217.323 83.5762 216.708 82.9082 216.708 81.5723V78.0391H215.612V76.9492H216.708V75.4316L218.079 75.0156V76.9492H219.649V78.0391H218.079V81.332C218.079 81.7344 218.149 82.0254 218.29 82.2051C218.434 82.3848 218.665 82.4746 218.981 82.4746C219.227 82.4746 219.45 82.4043 219.649 82.2637V83.3594ZM229.19 78.2617C228.987 78.1289 228.717 78.0625 228.381 78.0625C227.936 78.0625 227.574 78.2578 227.297 78.6484C227.024 79.0391 226.887 79.5566 226.887 80.2012V83.4297H225.51V76.9492H226.887V78.2383H226.916C227.237 77.3047 227.803 76.8379 228.615 76.8379C228.858 76.8379 229.049 76.8652 229.19 76.9199V78.2617ZM234.963 77.3828C235.623 76.9922 236.386 76.7969 237.254 76.7969C238.89 76.7969 239.709 77.6426 239.709 79.334V83.4297H238.373V82.4453H238.343C237.902 83.2031 237.246 83.582 236.375 83.582C235.738 83.582 235.236 83.4102 234.869 83.0664C234.506 82.7227 234.324 82.2598 234.324 81.6777C234.324 80.459 235.049 79.748 236.498 79.5449L238.379 79.2871C238.379 78.3223 237.955 77.8398 237.107 77.8398C236.33 77.8398 235.615 78.0918 234.963 78.5957V77.3828ZM236.949 80.418C236.48 80.4805 236.148 80.5996 235.953 80.7754C235.761 80.9512 235.666 81.209 235.666 81.5488C235.666 81.834 235.769 82.0684 235.976 82.252C236.183 82.4316 236.449 82.5215 236.773 82.5215C237.234 82.5215 237.617 82.3594 237.922 82.0352C238.226 81.707 238.379 81.2949 238.379 80.7988V80.2246L236.949 80.418ZM249.419 83.3594C249.165 83.5039 248.8 83.5762 248.323 83.5762C247.093 83.5762 246.478 82.9082 246.478 81.5723V78.0391H245.382V76.9492H246.478V75.4316L247.849 75.0156V76.9492H249.419V78.0391H247.849V81.332C247.849 81.7344 247.919 82.0254 248.06 82.2051C248.204 82.3848 248.435 82.4746 248.751 82.4746C248.997 82.4746 249.22 82.4043 249.419 82.2637V83.3594ZM260.706 80.5586H256.253C256.311 81.8672 256.977 82.5215 258.251 82.5215C258.969 82.5215 259.624 82.3066 260.213 81.877V83.0137C259.635 83.3926 258.876 83.582 257.934 83.582C256.973 83.582 256.221 83.2891 255.678 82.7031C255.135 82.1172 254.864 81.2969 254.864 80.2422C254.864 79.2422 255.155 78.418 255.737 77.7695C256.323 77.1211 257.055 76.7969 257.934 76.7969C258.809 76.7969 259.489 77.0742 259.973 77.6289C260.461 78.1797 260.706 78.9395 260.706 79.9082V80.5586ZM259.37 79.5566C259.366 79.002 259.239 78.5762 258.989 78.2793C258.739 77.9824 258.383 77.834 257.922 77.834C257.504 77.834 257.141 77.9922 256.833 78.3086C256.524 78.6211 256.333 79.0371 256.258 79.5566H259.37ZM272.531 82.832C272.531 85.2617 271.316 86.4766 268.887 86.4766C268.062 86.4766 267.363 86.3359 266.789 86.0547V84.7891C267.5 85.1875 268.189 85.3867 268.857 85.3867C270.389 85.3867 271.154 84.6035 271.154 83.0371V82.3926H271.131C270.654 83.1855 269.938 83.582 268.98 83.582C268.168 83.582 267.516 83.293 267.023 82.7148C266.535 82.1328 266.291 81.3574 266.291 80.3887C266.291 79.2949 266.559 78.4238 267.094 77.7754C267.633 77.123 268.35 76.7969 269.244 76.7969C270.092 76.7969 270.721 77.1309 271.131 77.7988H271.154V76.9492H272.531V82.832ZM271.166 79.6328C271.166 79.1523 271.008 78.7441 270.691 78.4082C270.375 78.0684 269.984 77.8984 269.52 77.8984C268.953 77.8984 268.506 78.1133 268.178 78.543C267.854 78.9688 267.691 79.5605 267.691 80.3184C267.691 80.9746 267.848 81.5 268.16 81.8945C268.473 82.2852 268.885 82.4805 269.396 82.4805C269.916 82.4805 270.34 82.2871 270.668 81.9004C271 81.5137 271.166 81.0254 271.166 80.4355V79.6328ZM278.89 74.7227C278.89 74.4922 278.968 74.3027 279.124 74.1543C279.285 74.002 279.486 73.9258 279.728 73.9258C279.966 73.9258 280.167 74.002 280.331 74.1543C280.496 74.3027 280.578 74.4922 280.578 74.7227C280.578 74.9531 280.496 75.1445 280.331 75.2969C280.167 75.4453 279.966 75.5195 279.728 75.5195C279.49 75.5195 279.29 75.4434 279.13 75.291C278.97 75.1387 278.89 74.9492 278.89 74.7227ZM279.025 83.4297V76.9492H280.402V83.4297H279.025ZM291.495 83.1543C291.018 83.4395 290.407 83.582 289.661 83.582C288.716 83.582 287.95 83.2832 287.364 82.6855C286.778 82.0879 286.485 81.3066 286.485 80.3418C286.485 79.2598 286.8 78.3984 287.429 77.7578C288.057 77.1172 288.895 76.7969 289.942 76.7969C290.587 76.7969 291.108 76.9004 291.507 77.1074V78.3965C291.046 78.0645 290.548 77.8984 290.013 77.8984C289.38 77.8984 288.866 78.1113 288.472 78.5371C288.081 78.959 287.886 79.5273 287.886 80.2422C287.886 80.9414 288.071 81.4902 288.442 81.8887C288.817 82.2832 289.319 82.4805 289.948 82.4805C290.495 82.4805 291.011 82.3047 291.495 81.9531V83.1543ZM305.256 83.4297V74.3535H308.01C311.213 74.3535 312.814 75.8281 312.814 78.7773C312.814 80.1953 312.357 81.3262 311.443 82.1699C310.533 83.0098 309.365 83.4297 307.939 83.4297H305.256ZM306.662 75.5605V82.2227H307.898C308.969 82.2227 309.808 81.9238 310.418 81.3262C311.031 80.7246 311.338 79.8848 311.338 78.8066C311.338 77.748 311.047 76.9434 310.465 76.3926C309.883 75.8379 309.039 75.5605 307.933 75.5605H306.662ZM324.335 80.5586H319.882C319.941 81.8672 320.607 82.5215 321.88 82.5215C322.599 82.5215 323.253 82.3066 323.843 81.877V83.0137C323.265 83.3926 322.505 83.582 321.564 83.582C320.603 83.582 319.851 83.2891 319.308 82.7031C318.765 82.1172 318.493 81.2969 318.493 80.2422C318.493 79.2422 318.784 78.418 319.366 77.7695C319.952 77.1211 320.685 76.7969 321.564 76.7969C322.439 76.7969 323.118 77.0742 323.603 77.6289C324.091 78.1797 324.335 78.9395 324.335 79.9082V80.5586ZM322.999 79.5566C322.995 79.002 322.868 78.5762 322.618 78.2793C322.368 77.9824 322.013 77.834 321.552 77.834C321.134 77.834 320.771 77.9922 320.462 78.3086C320.154 78.6211 319.962 79.0371 319.888 79.5566H322.999ZM334.93 83.1543C334.454 83.4395 333.842 83.582 333.096 83.582C332.151 83.582 331.385 83.2832 330.799 82.6855C330.214 82.0879 329.921 81.3066 329.921 80.3418C329.921 79.2598 330.235 78.3984 330.864 77.7578C331.493 77.1172 332.331 76.7969 333.378 76.7969C334.022 76.7969 334.544 76.9004 334.942 77.1074V78.3965C334.481 78.0645 333.983 77.8984 333.448 77.8984C332.815 77.8984 332.301 78.1113 331.907 78.5371C331.516 78.959 331.321 79.5273 331.321 80.2422C331.321 80.9414 331.506 81.4902 331.878 81.8887C332.253 82.2832 332.755 82.4805 333.383 82.4805C333.93 82.4805 334.446 82.3047 334.93 81.9531V83.1543ZM340.82 74.7227C340.82 74.4922 340.898 74.3027 341.055 74.1543C341.215 74.002 341.416 73.9258 341.658 73.9258C341.897 73.9258 342.098 74.002 342.262 74.1543C342.426 74.3027 342.508 74.4922 342.508 74.7227C342.508 74.9531 342.426 75.1445 342.262 75.2969C342.098 75.4453 341.897 75.5195 341.658 75.5195C341.42 75.5195 341.221 75.4434 341.061 75.291C340.9 75.1387 340.82 74.9492 340.82 74.7227ZM340.955 83.4297V76.9492H342.332V83.4297H340.955ZM348.527 81.9238C349.132 82.334 349.761 82.5391 350.414 82.5391C351.273 82.5391 351.703 82.2734 351.703 81.7422C351.703 81.5195 351.613 81.3379 351.433 81.1973C351.253 81.0527 350.849 80.8633 350.22 80.6289C349.56 80.375 349.115 80.1055 348.884 79.8203C348.654 79.5312 348.539 79.1699 348.539 78.7363C348.539 78.1387 348.789 77.666 349.289 77.3184C349.789 76.9707 350.408 76.7969 351.146 76.7969C351.712 76.7969 352.242 76.8906 352.734 77.0781V78.2969C352.242 77.9922 351.691 77.8398 351.082 77.8398C350.734 77.8398 350.453 77.9121 350.238 78.0566C350.023 78.2012 349.916 78.3906 349.916 78.625C349.916 78.8555 349.994 79.0371 350.15 79.1699C350.31 79.3027 350.675 79.4785 351.246 79.6973C351.949 79.9551 352.427 80.2305 352.681 80.5234C352.939 80.8125 353.068 81.1738 353.068 81.6074C353.068 82.2207 352.818 82.7031 352.318 83.0547C351.818 83.4062 351.162 83.582 350.349 83.582C349.654 83.582 349.046 83.4609 348.527 83.2188V81.9238ZM358.917 74.7227C358.917 74.4922 358.995 74.3027 359.151 74.1543C359.311 74.002 359.513 73.9258 359.755 73.9258C359.993 73.9258 360.194 74.002 360.358 74.1543C360.522 74.3027 360.604 74.4922 360.604 74.7227C360.604 74.9531 360.522 75.1445 360.358 75.2969C360.194 75.4453 359.993 75.5195 359.755 75.5195C359.517 75.5195 359.317 75.4434 359.157 75.291C358.997 75.1387 358.917 74.9492 358.917 74.7227ZM359.052 83.4297V76.9492H360.429V83.4297H359.052ZM366.512 80.248C366.512 79.1816 366.815 78.3398 367.42 77.7227C368.03 77.1055 368.858 76.7969 369.905 76.7969C370.893 76.7969 371.674 77.0957 372.248 77.6934C372.823 78.291 373.11 79.1074 373.11 80.1426C373.11 81.1855 372.807 82.0195 372.202 82.6445C371.596 83.2695 370.788 83.582 369.776 83.582C368.784 83.582 367.991 83.2793 367.397 82.6738C366.807 82.0684 366.512 81.2598 366.512 80.248ZM367.913 80.2188C367.913 80.9297 368.084 81.4844 368.428 81.8828C368.776 82.2812 369.246 82.4805 369.84 82.4805C371.086 82.4805 371.709 81.7129 371.709 80.1777C371.709 79.4355 371.549 78.8711 371.229 78.4844C370.909 78.0938 370.446 77.8984 369.84 77.8984C369.235 77.8984 368.762 78.1055 368.422 78.5195C368.082 78.9336 367.913 79.5 367.913 80.2188ZM384.889 83.4297H383.517V79.7676C383.517 78.5215 383.064 77.8984 382.158 77.8984C381.701 77.8984 381.322 78.0723 381.021 78.4199C380.724 78.7637 380.576 79.2012 380.576 79.7324V83.4297H379.199V76.9492H380.576V78.0098H380.605C381.086 77.2012 381.789 76.7969 382.715 76.7969C384.164 76.7969 384.889 77.6875 384.889 79.4688V83.4297ZM390.966 81.9238C391.572 82.334 392.2 82.5391 392.853 82.5391C393.712 82.5391 394.142 82.2734 394.142 81.7422C394.142 81.5195 394.052 81.3379 393.872 81.1973C393.693 81.0527 393.288 80.8633 392.659 80.6289C391.999 80.375 391.554 80.1055 391.324 79.8203C391.093 79.5312 390.978 79.1699 390.978 78.7363C390.978 78.1387 391.228 77.666 391.728 77.3184C392.228 76.9707 392.847 76.7969 393.585 76.7969C394.152 76.7969 394.681 76.8906 395.173 77.0781V78.2969C394.681 77.9922 394.13 77.8398 393.521 77.8398C393.173 77.8398 392.892 77.9121 392.677 78.0566C392.462 78.2012 392.355 78.3906 392.355 78.625C392.355 78.8555 392.433 79.0371 392.589 79.1699C392.749 79.3027 393.115 79.4785 393.685 79.6973C394.388 79.9551 394.866 80.2305 395.12 80.5234C395.378 80.8125 395.507 81.1738 395.507 81.6074C395.507 82.2207 395.257 82.7031 394.757 83.0547C394.257 83.4062 393.601 83.582 392.788 83.582C392.093 83.582 391.486 83.4609 390.966 83.2188V81.9238Z"
        fill="#55BBE0" />
    <defs>
        <linearGradient id="paint0_linear_2605_82993" x1="498.27" y1="1.29499" x2="443.47"
            y2="50.935" gradientUnits="userSpaceOnUse">
            <stop stop-color="#85CCAF" />
            <stop offset="0.51" stop-color="#4CB8E9" />
            <stop offset="0.95" stop-color="#6B59A6" />
        </linearGradient>
        <linearGradient id="paint1_linear_2605_82993" x1="513.813" y1="15.5277" x2="459.023"
            y2="65.1777" gradientUnits="userSpaceOnUse">
            <stop stop-color="#85CCAF" />
            <stop offset="0.51" stop-color="#4CB8E9" />
            <stop offset="0.95" stop-color="#6B59A6" />
        </linearGradient>
        <linearGradient id="paint2_linear_2605_82993" x1="455.998" y1="52.8672" x2="512.258"
            y2="3.58717" gradientUnits="userSpaceOnUse">
            <stop stop-color="#85CCAF" />
            <stop offset="0.51" stop-color="#4CB8E9" />
            <stop offset="0.95" stop-color="#6B59A6" />
        </linearGradient>
        <linearGradient id="paint3_linear_2605_82993" x1="497.69" y1="1.29982" x2="442.89"
            y2="50.9498" gradientUnits="userSpaceOnUse">
            <stop stop-color="#85CCAF" />
            <stop offset="0.51" stop-color="#4CB8E9" />
            <stop offset="0.95" stop-color="#6B59A6" />
        </linearGradient>
        <linearGradient id="paint4_linear_2605_82993" x1="455.15" y1="52.21" x2="511.41"
            y2="2.93002" gradientUnits="userSpaceOnUse">
            <stop stop-color="#85CCAF" />
            <stop offset="0.51" stop-color="#4CB8E9" />
            <stop offset="0.95" stop-color="#6B59A6" />
        </linearGradient>
        <linearGradient id="paint5_linear_2605_82993" x1="513.33" y1="15.3199" x2="458.54"
            y2="64.9599" gradientUnits="userSpaceOnUse">
            <stop stop-color="#85CCAF" />
            <stop offset="0.51" stop-color="#4CB8E9" />
            <stop offset="0.95" stop-color="#6B59A6" />
        </linearGradient>
    </defs>
</svg>
