<svg xmlns="http://www.w3.org/2000/svg" width="42" height="43" viewBox="0 0 42 43">
    <g id="Group_4874" transform="translate(-276 -180)">
        <g id="notifications" transform="translate(276 180)">
            <g id="Group_4873">
                <path id="Oval"
                    d="M21,0A21.254,21.254,0,0,1,42,21.5,21.254,21.254,0,0,1,21,43,21.254,21.254,0,0,1,0,21.5,21.254,21.254,0,0,1,21,0Z"
                    fill="#8431a7" />
                <g id="language-svgrepo-com" transform="translate(4.606 5.606)">
                    <path id="Path_43228"
                        d="M20.776,5H12.012A7.051,7.051,0,0,0,5,12.09V20.7a7.051,7.051,0,0,0,7.012,7.09h8.764a7.051,7.051,0,0,0,7.012-7.09V12.09A7.051,7.051,0,0,0,20.776,5Z"
                        transform="translate(0)" fill="none" stroke="#fff" stroke-linecap="round"
                        stroke-linejoin="round" stroke-width="1.5" fill-rule="evenodd" />
                    <path id="Path_43229"
                        d="M8.471,10.1a1.221,1.221,0,0,0,0,2.442Zm6.511,2.442a1.221,1.221,0,1,0,0-2.442Zm-1.221-1.221a1.221,1.221,0,0,0,2.442,0ZM16.2,8.471a1.221,1.221,0,0,0-2.442,0ZM14.982,10.1a1.221,1.221,0,0,0,0,2.442Zm5.7,2.442a1.221,1.221,0,0,0,0-2.442Zm0-2.442a1.221,1.221,0,0,0,0,2.442Zm.814,2.442a1.221,1.221,0,0,0,0-2.442Zm.185-.519a1.221,1.221,0,1,0-2-1.4ZM13.8,17.062a1.221,1.221,0,1,0,1.58,1.861ZM10.586,19.7a1.221,1.221,0,1,0,1.466,1.952Zm4.813-.8a1.221,1.221,0,0,0-1.62-1.826Zm-1.771-.159a1.221,1.221,0,0,0,1.921-1.508Zm.028-4.659a1.221,1.221,0,0,0-2.233.987Zm1.912,3.183a1.221,1.221,0,1,0-1.959,1.457Zm2.5,5.3a1.221,1.221,0,0,0,1.155-2.151ZM8.471,12.54h6.511V10.1H8.471ZM16.2,11.319V8.471H13.761v2.848ZM14.982,12.54h5.7V10.1h-5.7Zm5.7,0h.814V10.1h-.814Zm-1-1.923a34.383,34.383,0,0,1-5.88,6.445l1.58,1.861a36.825,36.825,0,0,0,6.3-6.9ZM12.052,21.655c.831-.624,2.039-1.594,3.347-2.755l-1.62-1.826c-1.26,1.118-2.416,2.046-3.193,2.629Zm3.5-4.422a14.8,14.8,0,0,1-1.893-3.152l-2.233.987a17.244,17.244,0,0,0,2.205,3.672Zm-1.94,1.489a13.534,13.534,0,0,0,4.457,3.847l1.155-2.151a11.093,11.093,0,0,1-3.653-3.153Z"
                        transform="translate(1.412 1.412)" fill="#fff" />
                </g>
            </g>
        </g>
    </g>
</svg>
