<svg id="Group_4873" data-name="Group 4873" xmlns="http://www.w3.org/2000/svg" width="42" height="43" viewBox="0 0 42 43">
  <path id="Oval" d="M21,0A21.254,21.254,0,0,1,42,21.5,21.254,21.254,0,0,1,21,43,21.254,21.254,0,0,1,0,21.5,21.254,21.254,0,0,1,21,0Z" fill="#8431a7"/>
  <g id="login-2-svgrepo-com" transform="translate(6.999 10)">
    <path id="Path_43228" data-name="Path 43228" d="M2,12H16m0,0L12.5,9M16,12l-3.5,3" fill="none" stroke="#fff" stroke-linecap="round" stroke-linejoin="round" stroke-width="1.5"/>
    <path id="Path_43229" data-name="Path 43229" d="M9,7c.012-2.175.109-3.353.877-4.121C10.758,2,12.172,2,15,2h1c2.828,0,4.243,0,5.121.879S22,5.172,22,8v8c0,2.828,0,4.243-.879,5.121-.768.768-1.946.865-4.122.877M9,17c.012,2.175.109,3.353.877,4.121.641.641,1.568.815,3.121.861" fill="none" stroke="#fff" stroke-linecap="round" stroke-width="1.5"/>
  </g>
</svg>
