<svg width="53" height="40" viewBox="0 0 53 40" fill="none" xmlns="http://www.w3.org/2000/svg">
    <path
        d="M16.9426 39.0654C16.2559 38.664 15.3855 38.7559 14.8003 39.2975L14.3022 39.7472C14.9889 40.1486 15.8594 40.0567 16.4446 39.5151L16.9426 39.0654Z"
        fill="#8331A7" />
    <path
        d="M21.1693 35.124C20.4826 34.7226 19.6121 34.8144 19.027 35.3561L16.4832 37.7064C17.1699 38.1078 18.0404 38.0159 18.6256 37.4742L21.1693 35.124Z"
        fill="#8331A7" />
    <path
        d="M26.0295 30.6117C25.3428 30.2104 24.4723 30.3022 23.8872 30.8439L20.5938 33.9099C21.2805 34.3113 22.1511 34.2194 22.7362 33.6778L26.0295 30.6117Z"
        fill="#8331A7" />
    <path
        d="M8.2233 38.4369C7.53658 38.0356 6.6661 38.1274 6.08094 38.6691L4.90577 39.7523C5.59248 40.1537 6.46299 40.0618 7.04815 39.5202L8.2233 38.4369Z"
        fill="#8331A7" />
    <path
        d="M21.3579 26.2499C20.6712 25.8485 19.8007 25.9404 19.2156 26.4821L17.0732 28.5325C17.7599 28.9339 18.6304 28.842 19.2156 28.3004L21.3579 26.2499Z"
        fill="#8331A7" />
    <path
        d="M17.2522 30.143C16.5654 29.7416 15.695 29.8335 15.1098 30.3751L14.2974 31.1295C14.9841 31.5309 15.8546 31.439 16.4397 30.8974L17.2522 30.143Z"
        fill="#8331A7" />
    <path
        d="M10.2544 32.2514C9.56768 31.85 8.69721 31.9419 8.11205 32.4835L7.2996 33.2379C7.98632 33.6393 8.85679 33.5474 9.44195 33.0058L10.2544 32.2514Z"
        fill="#8331A7" />
    <path
        d="M7.21743 35.0561C6.53072 34.6547 5.66024 34.7466 5.07508 35.2882L0.229389 39.747C0.916103 40.1484 1.78658 40.0565 2.37174 39.5149L7.21743 35.0561Z"
        fill="#8331A7" />
    <path
        d="M14.365 32.7641C13.6783 32.3627 12.8079 32.4546 12.2227 32.9962L8.20397 36.7103C8.89068 37.1117 9.76116 37.0198 10.3463 36.4781L14.365 32.7641Z"
        fill="#8331A7" />
    <path
        d="M18.7175 39.7472C19.4042 40.1486 20.2747 40.0567 20.8598 39.5151L21.6723 38.7607C20.9856 38.3593 20.1151 38.4512 19.5299 38.9928L18.7175 39.7472Z"
        fill="#8331A7" />
    <path
        d="M21.8512 36.8505C22.5379 37.2519 23.4084 37.16 23.9936 36.6184L28.2734 32.6625C27.5867 32.2611 26.7162 32.353 26.1311 32.8947L21.8512 36.8505Z"
        fill="#8331A7" />
    <path
        d="M19.027 24.1318C18.3403 23.7304 17.4698 23.8223 16.8846 24.3639L10.2303 30.5249C10.917 30.9263 11.7875 30.8344 12.3726 30.2928L19.027 24.1318Z"
        fill="#8331A7" />
    <path
        d="M18.5965 33.2236C17.9098 32.8222 17.0393 32.9141 16.4542 33.4557L9.64509 39.7521C10.3318 40.1535 11.2023 40.0617 11.7874 39.52L18.5965 33.2236Z"
        fill="#8331A7" />
    <path
        d="M23.6986 28.4311C23.0119 28.0297 22.1414 28.1216 21.5562 28.6632L18.6498 31.4197C19.3365 31.8211 20.207 31.7292 20.7921 31.1876L23.6986 28.4311Z"
        fill="#8331A7" />
    <path
        d="M10.327 4.50228C9.29691 3.61246 7.97669 3.12402 6.61293 3.12402H0.25356L38.8304 38.6154C39.8605 39.5052 41.1807 39.9936 42.5445 39.9936H48.9039L10.327 4.50228Z"
        fill="#8331A7" />
    <mask id="mask0_2605_43157" style="mask-type:luminance" maskUnits="userSpaceOnUse" x="26" y="0"
        width="27" height="27">
        <path d="M26.044 15.1995L38.0422 26.685L53 11.7901V0H41.7079L26.044 15.1995Z"
            fill="white" />
    </mask>
    <g mask="url(#mask0_2605_43157)">
        <path
            d="M37.8908 9.86323C38.7226 9.09082 38.7715 7.79117 38 6.96036C37.2285 6.12955 35.9288 6.08221 35.097 6.85461L20.0857 20.7941C19.2539 21.5665 19.2051 22.8662 19.9765 23.697C20.748 24.5278 22.0478 24.5751 22.8796 23.8027L37.8908 9.86323Z"
            fill="url(#paint0_linear_2605_43157)" />
        <path
            d="M44.8311 17.2748C45.6629 16.5024 45.7118 15.2028 44.9403 14.372C44.1688 13.5412 42.869 13.4938 42.0373 14.2662L27.026 28.2057C26.1942 28.9781 26.1453 30.2778 26.9168 31.1086C27.6883 31.9394 28.988 31.9867 29.8198 31.2143L44.8311 17.2748Z"
            fill="url(#paint1_linear_2605_43157)" />
        <path
            d="M44.8726 10.3642C45.7043 9.5918 45.7532 8.29214 44.9817 7.46134C44.2102 6.63053 42.9105 6.58319 42.0787 7.35559L29.6721 18.8764C28.8403 19.6488 28.7914 20.9485 29.5629 21.7793C30.3344 22.6101 31.6341 22.6574 32.4659 21.885L44.8726 10.3642Z"
            fill="url(#paint2_linear_2605_43157)" />
        <path
            d="M39.9911 7.16723C41.1262 7.16723 42.0464 6.24704 42.0464 5.11194C42.0464 3.97683 41.1262 3.05664 39.9911 3.05664C38.856 3.05664 37.9358 3.97683 37.9358 5.11194C37.9358 6.24704 38.856 7.16723 39.9911 7.16723Z"
            fill="url(#paint3_linear_2605_43157)" />
        <path
            d="M46.9743 7.50561C48.1094 7.50561 49.0296 6.58542 49.0296 5.45032C49.0296 4.31521 48.1094 3.39502 46.9743 3.39502C45.8392 3.39502 44.919 4.31521 44.919 5.45032C44.919 6.58542 45.8392 7.50561 46.9743 7.50561Z"
            fill="url(#paint4_linear_2605_43157)" />
        <path
            d="M46.9743 14.4695C48.1094 14.4695 49.0296 13.5493 49.0296 12.4142C49.0296 11.2791 48.1094 10.3589 46.9743 10.3589C45.8392 10.3589 44.919 11.2791 44.919 12.4142C44.919 13.5493 45.8392 14.4695 46.9743 14.4695Z"
            fill="url(#paint5_linear_2605_43157)" />
    </g>
    <defs>
        <linearGradient id="paint0_linear_2605_43157" x1="45.2188" y1="0.626708" x2="18.7175"
            y2="24.6327" gradientUnits="userSpaceOnUse">
            <stop stop-color="#85CCAF" />
            <stop offset="0.51" stop-color="#4CB8E9" />
            <stop offset="0.95" stop-color="#6B59A6" />
        </linearGradient>
        <linearGradient id="paint1_linear_2605_43157" x1="52.7353" y1="7.5093" x2="26.2389"
            y2="31.5201" gradientUnits="userSpaceOnUse">
            <stop stop-color="#85CCAF" />
            <stop offset="0.51" stop-color="#4CB8E9" />
            <stop offset="0.95" stop-color="#6B59A6" />
        </linearGradient>
        <linearGradient id="paint2_linear_2605_43157" x1="24.7761" y1="25.5669" x2="51.9834"
            y2="1.73498" gradientUnits="userSpaceOnUse">
            <stop stop-color="#85CCAF" />
            <stop offset="0.51" stop-color="#4CB8E9" />
            <stop offset="0.95" stop-color="#6B59A6" />
        </linearGradient>
        <linearGradient id="paint3_linear_2605_43157" x1="44.9384" y1="0.628973" x2="18.4371"
            y2="24.6398" gradientUnits="userSpaceOnUse">
            <stop stop-color="#85CCAF" />
            <stop offset="0.51" stop-color="#4CB8E9" />
            <stop offset="0.95" stop-color="#6B59A6" />
        </linearGradient>
        <linearGradient id="paint4_linear_2605_43157" x1="24.366" y1="25.2489" x2="51.5733"
            y2="1.41697" gradientUnits="userSpaceOnUse">
            <stop stop-color="#85CCAF" />
            <stop offset="0.51" stop-color="#4CB8E9" />
            <stop offset="0.95" stop-color="#6B59A6" />
        </linearGradient>
        <linearGradient id="paint5_linear_2605_43157" x1="52.5019" y1="7.40893" x2="26.0055"
            y2="31.4149" gradientUnits="userSpaceOnUse">
            <stop stop-color="#85CCAF" />
            <stop offset="0.51" stop-color="#4CB8E9" />
            <stop offset="0.95" stop-color="#6B59A6" />
        </linearGradient>
    </defs>
</svg>
