<svg width="25" height="24" viewBox="0 0 25 24" fill="none" xmlns="http://www.w3.org/2000/svg">
    <path
        d="M10.1465 10.87C10.0465 10.86 9.92651 10.86 9.81651 10.87C7.43651 10.79 5.54651 8.84 5.54651 6.44C5.54651 3.99 7.52651 2 9.98651 2C12.4365 2 14.4265 3.99 14.4265 6.44C14.4165 8.84 12.5265 10.79 10.1465 10.87Z"
        stroke="white" stroke-width="1.5" stroke-linecap="round" stroke-linejoin="round" />
    <path
        d="M17.3965 4C19.3365 4 20.8965 5.57 20.8965 7.5C20.8965 9.39 19.3965 10.93 17.5265 11C17.4465 10.99 17.3565 10.99 17.2665 11"
        stroke="white" stroke-width="1.5" stroke-linecap="round" stroke-linejoin="round" />
    <path
        d="M5.14642 14.56C2.72642 16.18 2.72642 18.82 5.14642 20.43C7.89642 22.27 12.4064 22.27 15.1564 20.43C17.5764 18.81 17.5764 16.17 15.1564 14.56C12.4164 12.73 7.90642 12.73 5.14642 14.56Z"
        stroke="white" stroke-width="1.5" stroke-linecap="round" stroke-linejoin="round" />
    <path
        d="M19.3264 20C20.0464 19.85 20.7264 19.56 21.2864 19.13C22.8464 17.96 22.8464 16.03 21.2864 14.86C20.7364 14.44 20.0664 14.16 19.3564 14"
        stroke="white" stroke-width="1.5" stroke-linecap="round" stroke-linejoin="round" />
</svg>
