<svg id="Group_44728" data-name="Group 44728" xmlns="http://www.w3.org/2000/svg" width="42" height="43" viewBox="0 0 42 43">
  <ellipse id="Oval" cx="21" cy="21.5" rx="21" ry="21.5" fill="#6976ff"/>
  <path id="Icon" d="M8,0A2.4,2.4,0,0,0,5.926,1.223a.829.829,0,0,0-.017.788.8.8,0,0,0,.619.435l.091.005H9.387a.789.789,0,0,0,.687-.4.825.825,0,0,0,.005-.83A2.4,2.4,0,0,0,8,0Zm7.2,4.088H.8a.783.783,0,0,0-.749.528.816.816,0,0,0,.23.914L.376,5.6l.064.055.1.1.015.016L.6,5.814a4.9,4.9,0,0,1,.7,1.018,11.277,11.277,0,0,1,1.1,5.086l0,.352A5.671,5.671,0,0,0,8,18a5.671,5.671,0,0,0,5.6-5.727,11.793,11.793,0,0,1,1.046-5.328,5.16,5.16,0,0,1,.7-1.061l.068-.075.116-.119.048-.044.08-.065a.808.808,0,0,0,.316-.881.8.8,0,0,0-.682-.6ZM8,16.36a4.031,4.031,0,0,1-4-3.913l0-.177A13.217,13.217,0,0,0,2.7,6.048l-.111-.2L2.52,5.724H13.483l-.067.113-.063.113-.125.236A13.42,13.42,0,0,0,12,12.27,4.051,4.051,0,0,1,8,16.36Z" transform="translate(29 30.996) rotate(180)" fill="#fff"/>
</svg>
