<svg xmlns="http://www.w3.org/2000/svg" width="42" height="43" viewBox="0 0 42 43">
    <g id="Group_4875" transform="translate(-276 -180)">
        <g id="Group_4874">
            <g id="notifications" transform="translate(276 180)">
                <g id="Group_4873">
                    <path id="Oval"
                        d="M21,0A21.254,21.254,0,0,1,42,21.5,21.254,21.254,0,0,1,21,43,21.254,21.254,0,0,1,0,21.5,21.254,21.254,0,0,1,21,0Z"
                        fill="#8431a7" />
                </g>
            </g>
            <path id="notifications-alert-svgrepo-com"
                d="M11.169,5.437V6.1C7.779,7.49,5.411,12.056,5.5,16.014v2.2c-1.735,2.231-1.633,5.557,2.7,5.557h2.976a3.471,3.471,0,0,0,.988,2.43,3.327,3.327,0,0,0,4.768,0,3.472,3.472,0,0,0,.988-2.43H20.9c4.321,0,4.384-3.333,2.649-5.564l.048-2.188c.087-3.962-2.286-8.532-5.681-9.92V5.437a3.471,3.471,0,0,0-.988-2.43,3.327,3.327,0,0,0-4.768,0A3.471,3.471,0,0,0,11.169,5.437Zm4.5,0s0,.046,0,.07a9.009,9.009,0,0,0-2.244,0c0-.023,0-.047,0-.071a1.157,1.157,0,0,1,.329-.81,1.109,1.109,0,0,1,1.589,0A1.157,1.157,0,0,1,15.665,5.437ZM13.417,23.769a1.157,1.157,0,0,0,.329.81,1.109,1.109,0,0,0,1.589,0,1.158,1.158,0,0,0,.329-.81Zm7.48-2.291a1.148,1.148,0,0,0,.853-1.891,1.94,1.94,0,0,1-.455-1.292l.051-2.329c.086-3.89-2.984-8.237-6.8-8.237s-6.886,4.345-6.8,8.234l.051,2.332a1.941,1.941,0,0,1-.455,1.292,1.148,1.148,0,0,0,.853,1.891ZM20.852,3.515A1.26,1.26,0,0,1,22.606,3.2a13.134,13.134,0,0,1,4.128,6.255,1.26,1.26,0,0,1-2.392.8A10.813,10.813,0,0,0,21.17,5.269,1.26,1.26,0,0,1,20.852,3.515ZM6.3,3.2A1.26,1.26,0,0,1,7.732,5.269,10.813,10.813,0,0,0,4.56,10.247a1.26,1.26,0,0,1-2.392-.8A13.134,13.134,0,0,1,6.3,3.2Z"
                transform="translate(282.346 187.397)" fill="#fff" stroke="#8431a7" stroke-width="1"
                fill-rule="evenodd" />
        </g>
    </g>
</svg>
