<svg id="Group_44723" data-name="Group 44723" xmlns="http://www.w3.org/2000/svg" width="42" height="43" viewBox="0 0 42 43">
  <ellipse id="Oval" cx="21" cy="21.5" rx="21" ry="21.5" fill="#6976ff"/>
  <path id="Icon" d="M5.891,0A5.869,5.869,0,0,0,1.664,1.838,6.239,6.239,0,0,0,0,6.163a6.233,6.233,0,0,0,1.736,4.3,5.767,5.767,0,0,0,7.391.829l.225-.158,3.163,3.281a.9.9,0,0,0,.349.226l2.829,3.07a.888.888,0,0,0,1.217.1l.087-.08,2.735-2.839a.972.972,0,0,0,.076-1.248l-.076-.089-3.191-3.312a.887.887,0,0,0-1.2-.078l-.086.078-2,2.079L10.775,9.63l.058-.086a6.312,6.312,0,0,0,.9-4.453l-.052-.274-.058-.246A6.056,6.056,0,0,0,7.411.206,5.727,5.727,0,0,0,5.891,0Zm.036,10.367a4,4,0,0,1-2.9-1.247A4.369,4.369,0,0,1,2.969,3.16,4.055,4.055,0,0,1,5.89,1.892a3.965,3.965,0,0,1,1.053.143A4.193,4.193,0,0,1,9.856,5.057a4.384,4.384,0,0,1-.81,3.814L8.9,9.043l-.056.071-.066.059A4.008,4.008,0,0,1,5.928,10.367ZM16.366,15.7h0l-1.859-2.018,1.389-1.44,1.9,1.973L16.366,15.7Z" transform="translate(31 31) rotate(180)" fill="#fff"/>
</svg>
