<svg width="20" height="20" viewBox="0 0 20 20" fill="none" xmlns="http://www.w3.org/2000/svg">
<g id="radio-button">
<path id="Vector" fill-rule="evenodd" clip-rule="evenodd" d="M10 16.25C13.4517 16.25 16.25 13.4517 16.25 10C16.25 6.54822 13.4517 3.75 10 3.75C6.54822 3.75 3.75 6.54822 3.75 10C3.75 13.4517 6.54822 16.25 10 16.25ZM10 17.5C14.1422 17.5 17.5 14.1422 17.5 10C17.5 5.85787 14.1422 2.5 10 2.5C5.85787 2.5 2.5 5.85787 2.5 10C2.5 14.1422 5.85787 17.5 10 17.5Z" fill="#7F42E2"/>
<path id="Vector_2" d="M10 14.375C12.4162 14.375 14.375 12.4162 14.375 10C14.375 7.58375 12.4162 5.625 10 5.625C7.58375 5.625 5.625 7.58375 5.625 10C5.625 12.4162 7.58375 14.375 10 14.375Z" fill="#7F42E2"/>
</g>
</svg>
