<svg width="20" height="20" viewBox="0 0 20 20" fill="none" xmlns="http://www.w3.org/2000/svg">
<path fill-rule="evenodd" clip-rule="evenodd" d="M10 16.25C13.4517 16.25 16.25 13.4517 16.25 10C16.25 6.54822 13.4517 3.75 10 3.75C6.54822 3.75 3.75 6.54822 3.75 10C3.75 13.4517 6.54822 16.25 10 16.25ZM10 17.5C14.1422 17.5 17.5 14.1422 17.5 10C17.5 5.85787 14.1422 2.5 10 2.5C5.85787 2.5 2.5 5.85787 2.5 10C2.5 14.1422 5.85787 17.5 10 17.5Z" fill="#7F42E2"/>
<path d="M13.875 10C13.875 12.1401 12.1401 13.875 10 13.875C7.8599 13.875 6.125 12.1401 6.125 10C6.125 7.8599 7.8599 6.125 10 6.125C12.1401 6.125 13.875 7.8599 13.875 10Z" stroke="#7F42E2"/>
</svg>
