<svg id="Group_44724" data-name="Group 44724" xmlns="http://www.w3.org/2000/svg" width="42" height="43" viewBox="0 0 42 43">
  <ellipse id="Oval" cx="21" cy="21.5" rx="21" ry="21.5" fill="#8431A7"/>
  <path id="Icon" d="M14.4,0a2.7,2.7,0,0,0-2.7,2.542l0,.158V5.4a2.7,2.7,0,0,0,2.542,2.7l.158,0h1.8V9a7.2,7.2,0,0,1-14.4.224L1.8,9V8.1H3.6A2.7,2.7,0,0,0,6.3,5.558l0-.158V2.7A2.7,2.7,0,0,0,3.758,0L3.6,0H2.7A2.7,2.7,0,0,0,0,2.542L0,2.7V9a9,9,0,0,0,18,.252L18,9V2.7A2.7,2.7,0,0,0,15.458,0L15.3,0Zm0,6.3a.9.9,0,0,1-.894-.795L13.5,5.4V2.7a.9.9,0,0,1,.795-.894L14.4,1.8h.9a.9.9,0,0,1,.894.795L16.2,2.7V6.3ZM1.8,2.7a.9.9,0,0,1,.795-.894L2.7,1.8h.9a.9.9,0,0,1,.894.795L4.5,2.7V5.4a.9.9,0,0,1-.795.894L3.6,6.3H1.8Z" transform="translate(30 31) rotate(180)" fill="#fff"/>
</svg>
