<svg width="396" height="53" viewBox="0 0 396 53" fill="none" xmlns="http://www.w3.org/2000/svg">
<path d="M319.12 0.859604H312.53V36.3296C312.53 38.2396 311.33 39.3796 309.32 39.3796C307.83 39.3796 306.32 38.6196 304.82 37.1196L304.74 37.0396L285.41 8.0396C282.26 3.1996 278.16 0.849609 272.87 0.849609C260.67 0.849609 254.73 6.1496 254.73 17.0596V52.5296H260.79C264.71 52.5296 267.89 49.3496 267.89 45.4296V17.0596C267.89 15.1496 269.09 14.0096 271.1 14.0096C272.61 14.0096 274.13 14.7696 275.6 16.2796L275.67 16.3596L295 45.3596C298.14 50.1996 302.25 52.5496 307.54 52.5496C319.74 52.5496 325.68 47.2496 325.68 36.3396V7.43961C325.68 3.80961 322.74 0.869598 319.11 0.869598L319.12 0.859604Z" fill="#8331A7"/>
<path d="M58.69 0.859375C51.6 0.859375 46.99 5.65938 44.58 15.5694L38.26 36.6094L31.93 15.5294C29.53 5.65937 24.92 0.86937 17.83 0.86937C5.86005 0.86937 0.0400391 6.84938 0.0400391 19.1594V52.7194H13.34V17.2494C13.34 15.5294 14.3 14.5394 15.98 14.5394C17.66 14.5394 19.05 17.0094 20.44 22.7294L27.89 45.6994C29.04 50.4294 31.83 52.7294 36.42 52.7294H40.14C44.73 52.7294 47.5201 50.4294 48.69 45.6394L56.1001 22.7894C57.5101 17.0094 58.8401 14.5394 60.5701 14.5394C62.3001 14.5394 63.2101 15.5294 63.2101 17.2494V52.7194H76.51V19.1594C76.51 6.84938 70.69 0.86937 58.72 0.86937L58.69 0.859375Z" fill="#8331A7"/>
<path d="M180.84 10.2996H199.82V52.5896H204.47C209.2 52.5896 213.03 48.7596 213.03 44.0196V10.2996H232.01V0.80957H180.83V10.2996H180.84Z" fill="#8331A7"/>
<path d="M236.71 52.5896H249.58C249.77 52.5896 249.93 52.4296 249.93 52.2396V0.80957H236.72V52.5896H236.71Z" fill="#8331A7"/>
<path d="M386.19 21.9496H363.41V31.4396H382.47V43.0896H351.53C347.6 43.0896 344.38 39.8696 344.38 35.9396V17.4496C344.38 13.5196 347.6 10.2996 351.53 10.2996H395.68C395.68 5.05958 391.43 0.80957 386.19 0.80957H347.98C338.73 0.80957 331.17 8.37957 331.17 17.6196V35.7696C331.17 45.0196 338.74 52.5796 347.98 52.5796H386.19C391.43 52.5796 395.68 48.3296 395.68 43.0896V31.4396C395.68 26.1996 391.43 21.9496 386.19 21.9496Z" fill="#8331A7"/>
<path d="M81.8501 17.6196V35.7696C81.8501 45.0196 89.4201 52.5796 98.6601 52.5796H126.12V43.0896H102.21C98.2801 43.0896 95.0601 39.8696 95.0601 35.9396V31.4396H126.12V21.9496H95.0601V17.4496C95.0601 13.5196 98.2801 10.2996 102.21 10.2996H126.12V0.80957H98.6601C89.4101 0.80957 81.8501 8.37957 81.8501 17.6196Z" fill="#8331A7"/>
<path d="M131.71 17.6196V35.7696C131.71 45.0196 139.28 52.5796 148.52 52.5796H175.98V43.0896H152.07C148.14 43.0896 144.92 39.8696 144.92 35.9396V31.4396H175.98V21.9496H144.92V17.4496C144.92 13.5196 148.14 10.2996 152.07 10.2996H175.98V0.80957H148.52C139.27 0.80957 131.71 8.37957 131.71 17.6196Z" fill="#8331A7"/>
</svg>
